<?xml version="1.0" standalone="no"?>
<!DOCTYPE svg PUBLIC "-//W3C//DTD SVG 20010904//EN"
 "http://www.w3.org/TR/2001/REC-SVG-20010904/DTD/svg10.dtd">
<svg version="1.0" xmlns="http://www.w3.org/2000/svg"
 width="260.000000pt" height="260.000000pt" viewBox="0 0 260.000000 260.000000"
 preserveAspectRatio="xMidYMid meet">
<metadata>
Created by potrace 1.11, written by Peter Selinger 2001-2013
</metadata>
<g transform="translate(0.000000,260.000000) scale(0.100000,-0.100000)"
fill="#000000" stroke="none">
<path d="M2020 2560 c0 -29 4 -40 15 -40 8 0 15 -6 15 -13 0 -7 9 -19 20 -27
11 -8 20 -22 20 -32 0 -10 5 -18 10 -18 6 0 10 -9 10 -20 0 -11 5 -20 10 -20
6 0 10 -11 10 -25 0 -14 5 -25 10 -25 6 0 10 -8 10 -18 0 -10 9 -24 20 -32 11
-8 20 -22 20 -32 0 -10 7 -18 15 -18 8 0 15 -9 15 -20 0 -11 5 -20 10 -20 6 0
10 -11 10 -25 0 -14 5 -25 10 -25 6 0 10 -9 10 -20 0 -11 5 -20 10 -20 6 0 10
-9 10 -20 0 -11 5 -20 10 -20 6 0 10 -9 10 -20 0 -11 5 -20 10 -20 6 0 10 -7
10 -15 0 -8 5 -15 10 -15 6 0 10 11 10 25 0 14 5 25 10 25 6 0 10 -20 10 -45
0 -25 5 -45 10 -45 17 0 60 -47 60 -65 0 -8 5 -15 10 -15 6 0 10 -11 10 -25 0
-14 5 -25 10 -25 6 0 10 -8 10 -18 0 -10 9 -24 20 -32 12 -8 20 -26 20 -42 0
-18 5 -28 15 -28 9 0 15 -9 15 -25 0 -14 5 -25 10 -25 6 0 10 -7 10 -16 0 -15
23 -44 34 -44 3 0 6 225 6 500 l0 500 -290 0 -290 0 0 -40z"/>
<path d="M1000 2530 c0 -5 -9 -10 -20 -10 -11 0 -20 -5 -20 -11 0 -17 -27 -39
-49 -39 -12 0 -21 -4 -21 -10 0 -5 7 -10 15 -10 8 0 15 -4 15 -10 0 -5 -7 -10
-15 -10 -8 0 -15 -4 -15 -10 0 -5 11 -10 25 -10 14 0 25 -3 25 -6 0 -13 -30
-34 -49 -34 -12 0 -21 -5 -21 -11 0 -21 -29 -39 -64 -39 -20 0 -36 -4 -36 -10
0 -5 -11 -10 -25 -10 -14 0 -25 -4 -25 -10 0 -6 -27 -10 -60 -10 -33 0 -60 4
-60 10 0 6 -16 10 -35 10 -19 0 -35 -4 -35 -10 0 -5 -13 -10 -30 -10 -16 0
-30 -4 -30 -10 0 -5 -9 -10 -20 -10 -11 0 -20 -4 -20 -10 0 -5 5 -10 10 -10
15 0 12 -60 -4 -76 -8 -8 -23 -14 -33 -14 -10 0 -25 -9 -33 -20 -8 -11 -20
-20 -28 -20 -20 0 -82 -67 -82 -90 0 -11 -7 -20 -15 -20 -8 0 -15 -8 -15 -18
0 -10 -9 -24 -20 -32 -11 -8 -20 -22 -20 -32 0 -10 -4 -18 -10 -18 -5 0 -10
-14 -10 -31 0 -33 -19 -59 -44 -59 -9 0 -16 -8 -16 -20 0 -11 -5 -20 -11 -20
-16 0 -39 -26 -39 -44 0 -9 -4 -16 -10 -16 -15 0 -12 -87 3 -94 9 -5 9 -7 0
-12 -15 -7 -17 -44 -3 -44 6 0 10 -28 10 -65 0 -37 4 -65 10 -65 6 0 10 -50
10 -130 0 -109 2 -130 15 -130 10 0 15 -10 15 -30 0 -16 5 -30 10 -30 6 0 10
-16 10 -35 0 -19 5 -35 10 -35 6 0 10 -8 10 -18 0 -10 9 -24 20 -32 11 -8 20
-20 20 -28 0 -15 45 -62 60 -62 5 0 10 -9 10 -20 0 -13 29 -49 70 -90 39 -38
70 -74 70 -80 0 -5 7 -10 15 -10 12 0 15 -16 15 -85 0 -84 0 -85 -25 -85 -18
0 -25 -5 -25 -20 0 -11 -4 -20 -10 -20 -5 0 -10 -9 -10 -20 0 -11 -4 -20 -10
-20 -5 0 -10 -20 -10 -45 0 -25 -4 -45 -10 -45 -5 0 -10 -7 -10 -15 0 -9 -11
-27 -25 -40 -22 -22 -32 -25 -105 -25 -47 0 -80 -4 -80 -10 0 -5 -16 -10 -35
-10 -19 0 -35 -4 -35 -10 0 -5 -9 -10 -20 -10 -19 0 -20 -7 -20 -110 l0 -110
1300 0 1300 0 0 770 c0 507 -3 770 -10 770 -6 0 -10 -35 -10 -85 0 -50 -4 -85
-10 -85 -5 0 -10 -9 -10 -21 0 -26 -23 -49 -49 -49 -12 0 -21 -4 -21 -10 0 -5
-9 -10 -20 -10 -16 0 -20 7 -20 30 0 17 -4 30 -10 30 -5 0 -10 25 -10 55 0 30
-4 55 -10 55 -6 0 -10 32 -10 75 0 43 -4 75 -10 75 -5 0 -10 25 -10 55 0 42
-3 55 -15 55 -11 0 -15 12 -15 50 0 28 -4 50 -10 50 -5 0 -10 -13 -10 -30 0
-16 -4 -30 -10 -30 -6 0 -10 -78 -10 -215 0 -137 -4 -215 -10 -215 -5 0 -10
-4 -10 -10 0 -5 9 -10 20 -10 19 0 20 -7 20 -94 0 -66 4 -96 13 -100 10 -5 10
-7 0 -12 -7 -3 -13 -14 -13 -25 0 -10 -4 -19 -10 -19 -5 0 -10 -6 -10 -13 0
-7 -9 -19 -20 -27 -11 -8 -20 -20 -20 -28 0 -7 -16 -28 -35 -47 -28 -28 -42
-35 -75 -35 -22 0 -40 5 -40 10 0 6 -9 10 -20 10 -11 0 -20 5 -20 10 0 6 -20
10 -45 10 -25 0 -45 -4 -45 -10 0 -5 -9 -10 -20 -10 -13 0 -20 -7 -20 -20 0
-11 -4 -20 -10 -20 -5 0 -10 -5 -10 -11 0 -17 -27 -39 -49 -39 -12 0 -21 -4
-21 -10 0 -5 -4 -10 -10 -10 -5 0 -10 9 -10 20 0 11 5 20 10 20 6 0 10 68 10
185 l0 185 -40 0 c-22 0 -40 5 -40 10 0 6 -13 10 -30 10 -16 0 -30 -4 -30 -10
0 -5 -14 -10 -31 -10 -35 0 -59 -20 -59 -49 0 -17 6 -21 30 -21 23 0 30 -4 30
-20 0 -11 7 -20 15 -20 8 0 15 -8 15 -18 0 -10 9 -24 20 -32 11 -8 20 -25 20
-37 0 -13 5 -23 10 -23 6 0 10 -9 10 -20 0 -11 5 -20 10 -20 6 0 10 -13 10
-30 0 -23 -5 -30 -19 -30 -11 0 -21 -6 -23 -12 -6 -17 -38 14 -38 36 0 9 -7
16 -15 16 -8 0 -15 -4 -15 -10 0 -5 -9 -10 -20 -10 -11 0 -20 -4 -20 -10 0 -5
-18 -10 -39 -10 -22 0 -42 -6 -45 -12 -5 -10 -7 -10 -12 0 -3 6 -12 12 -19 12
-7 0 -16 -6 -19 -12 -5 -10 -7 -10 -12 0 -3 6 -14 12 -25 12 -10 0 -19 5 -19
10 0 6 -19 10 -43 10 -31 0 -46 5 -57 20 -8 12 -26 20 -42 20 -15 0 -28 5 -28
10 0 6 -9 10 -20 10 -11 0 -20 -4 -20 -10 0 -5 -24 -10 -54 -10 -34 0 -56 -5
-59 -12 -3 -9 -12 -5 -27 12 -15 17 -24 21 -27 13 -5 -15 -53 -18 -53 -3 0 6
-38 10 -95 10 -57 0 -95 4 -95 10 0 6 5 10 10 10 6 0 10 5 10 10 0 6 -9 10
-20 10 -16 0 -20 7 -20 35 0 28 -4 35 -20 35 -11 0 -20 5 -20 10 0 19 -62 11
-81 -12 l-19 -21 -19 21 c-23 27 -42 28 -61 2 -11 -15 -26 -20 -57 -20 -24 0
-43 5 -43 10 0 6 -13 10 -30 10 -16 0 -30 5 -30 10 0 6 -20 10 -45 10 -25 0
-45 5 -45 10 0 6 -7 10 -15 10 -21 0 -65 45 -65 65 0 19 -23 45 -39 45 -6 0
-11 9 -11 20 0 11 -4 20 -10 20 -5 0 -10 20 -10 45 0 25 5 45 10 45 6 0 10 14
10 30 0 20 5 30 15 30 8 0 15 7 15 16 0 30 27 44 84 44 31 0 56 -4 56 -10 0
-5 11 -10 25 -10 14 0 25 -4 25 -10 0 -5 13 -10 29 -10 16 0 32 -6 34 -12 4
-10 8 -9 17 2 9 11 13 12 17 3 12 -30 73 -4 73 31 0 9 5 16 10 16 6 0 10 7 10
15 0 8 5 15 10 15 6 0 10 9 10 20 0 11 5 20 10 20 6 0 10 23 10 50 0 28 5 50
10 50 6 0 10 5 10 11 0 12 25 39 35 39 4 0 20 14 35 30 15 17 34 30 42 30 7 0
20 9 28 20 8 11 22 20 32 20 10 0 18 5 18 10 0 6 7 10 15 10 8 0 15 7 15 15 0
8 9 15 20 15 11 0 20 5 20 10 0 6 9 10 20 10 11 0 20 5 20 10 0 6 9 10 20 10
16 0 20 -7 20 -35 0 -19 5 -35 10 -35 6 0 10 -9 10 -20 0 -11 5 -20 10 -20 14
0 120 -106 120 -120 0 -5 11 -10 25 -10 14 0 25 -4 25 -10 0 -6 35 -10 85 -10
50 0 85 4 85 10 0 6 9 10 20 10 11 0 20 6 20 13 0 7 9 19 20 27 11 8 20 22 20
32 0 10 5 18 10 18 6 0 10 18 10 40 0 22 5 40 10 40 6 0 10 7 10 15 0 10 11
15 35 15 24 0 35 -5 35 -15 0 -8 8 -15 18 -15 10 0 24 -9 32 -20 8 -11 22 -20
32 -20 10 0 18 -4 18 -10 0 -5 5 -10 10 -10 19 0 100 -89 100 -110 0 -11 -4
-20 -10 -20 -5 0 -10 -9 -10 -20 0 -13 -7 -20 -18 -20 -10 0 -24 -9 -32 -20
-8 -11 -20 -20 -27 -20 -7 0 -13 -9 -13 -20 0 -13 -7 -20 -20 -20 -18 0 -20
-7 -20 -55 l0 -55 35 0 c19 0 35 -4 35 -10 0 -5 9 -10 20 -10 15 0 20 -7 20
-25 0 -18 -5 -25 -20 -25 -11 0 -20 -4 -20 -10 0 -5 9 -10 20 -10 11 0 20 -4
20 -10 0 -5 23 -10 50 -10 l50 0 0 45 c0 25 -4 45 -10 45 -5 0 -10 -11 -10
-25 0 -14 -4 -25 -10 -25 -5 0 -10 7 -10 15 0 8 -4 15 -10 15 -5 0 -10 9 -10
20 0 11 -4 20 -10 20 -5 0 -10 18 -10 40 0 22 5 40 10 40 6 0 10 -4 10 -10 0
-5 5 -10 10 -10 6 0 10 11 10 25 0 14 -4 25 -10 25 -5 0 -10 9 -10 20 0 17 7
20 45 20 38 0 45 3 45 20 0 11 5 20 10 20 6 0 10 38 10 95 0 57 -4 95 -10 95
-5 0 -10 16 -10 35 0 24 -5 35 -15 35 -8 0 -15 5 -15 10 0 6 -9 10 -20 10 -11
0 -20 5 -20 10 0 6 -9 10 -20 10 -11 0 -20 5 -20 10 0 6 -9 10 -20 10 -13 0
-20 7 -20 20 0 11 -4 20 -10 20 -5 0 -10 11 -10 25 0 16 -6 25 -15 25 -8 0
-15 5 -15 10 0 15 -70 12 -86 -4 -8 -8 -14 -33 -14 -55 0 -40 -1 -41 -35 -41
-19 0 -35 5 -35 10 0 6 -18 10 -40 10 -22 0 -40 5 -40 10 0 6 -9 10 -20 10
-11 0 -20 5 -20 10 0 6 -11 10 -25 10 -16 0 -25 6 -25 15 0 8 -9 15 -20 15
-11 0 -20 5 -20 10 0 6 20 10 45 10 25 0 45 5 45 10 0 6 -6 10 -13 10 -7 0
-19 9 -27 20 -8 11 -22 20 -31 20 -10 0 -20 6 -23 13 -5 10 -7 10 -12 0 -4 -9
-28 -13 -70 -13 -36 0 -64 -4 -64 -10 0 -5 -18 -10 -40 -10 -22 0 -40 -4 -40
-10 0 -5 -7 -10 -15 -10 -8 0 -15 -4 -15 -10 0 -5 -12 -10 -26 -10 -26 0 -54
-20 -54 -38 0 -6 -6 -13 -12 -15 -10 -4 -9 -8 2 -16 8 -5 11 -13 7 -18 -5 -4
-12 -1 -17 7 -7 12 -12 11 -28 -8 -11 -12 -27 -22 -36 -22 -18 0 -86 -63 -86
-80 0 -5 -8 -10 -18 -10 -10 0 -24 -9 -32 -20 -8 -11 -20 -20 -27 -20 -7 0
-13 -4 -13 -10 0 -5 -8 -10 -18 -10 -10 0 -24 -9 -32 -20 -8 -11 -22 -20 -32
-20 -11 0 -18 7 -18 20 0 11 -4 20 -10 20 -5 0 -10 5 -10 10 0 6 9 10 20 10
17 0 20 7 20 45 0 25 5 45 10 45 6 0 10 14 10 30 0 17 5 30 10 30 6 0 10 9 10
20 0 11 5 20 10 20 6 0 10 11 10 25 0 14 -4 25 -10 25 -5 0 -10 9 -10 20 0 13
-7 20 -20 20 -17 0 -20 7 -20 40 0 22 5 40 10 40 6 0 10 5 10 10 0 19 69 80
90 80 11 0 20 5 20 10 0 6 14 10 30 10 17 0 30 5 30 10 0 6 20 10 45 10 25 0
45 5 45 10 0 6 14 10 30 10 17 0 30 5 30 10 0 6 53 10 140 10 87 0 140 -4 140
-10 0 -5 18 -10 40 -10 22 0 40 -4 40 -10 0 -5 9 -10 20 -10 17 0 20 7 20 41
0 42 -17 69 -44 69 -9 0 -16 5 -16 10 0 6 -9 10 -20 10 -11 0 -20 5 -20 10 0
6 -9 10 -20 10 -11 0 -20 5 -20 10 0 6 -9 10 -21 10 -22 0 -49 22 -49 39 0 6
-9 11 -20 11 -11 0 -20 5 -20 10 0 6 -28 10 -65 10 -37 0 -65 -4 -65 -10z m60
-515 c0 -8 -4 -15 -10 -15 -5 0 -10 7 -10 15 0 8 5 15 10 15 6 0 10 -7 10 -15z
m130 -35 c0 -11 5 -20 10 -20 6 0 10 -9 10 -20 0 -24 -6 -25 -26 -6 -16 17
-19 66 -4 66 6 0 10 -9 10 -20z m-524 -904 c8 -8 14 -17 14 -21 0 -10 48 -55
60 -55 5 0 10 -8 10 -18 0 -10 9 -24 20 -32 11 -8 20 -22 20 -32 0 -10 5 -18
10 -18 6 0 10 -5 10 -10 0 -23 50 -60 80 -60 16 0 30 -4 30 -10 0 -5 14 -10
30 -10 17 0 30 -4 30 -10 0 -5 9 -10 20 -10 12 0 20 -7 20 -16 0 -22 25 -44
49 -44 12 0 21 -6 21 -15 0 -8 -7 -15 -15 -15 -8 0 -15 -4 -15 -10 0 -5 7 -10
15 -10 8 0 15 -4 15 -10 0 -5 13 -10 28 -10 16 0 34 -8 42 -20 11 -15 26 -20
57 -20 36 0 43 -3 43 -20 0 -11 5 -20 10 -20 6 0 10 5 10 10 0 6 7 10 16 10
18 0 44 -23 44 -39 0 -6 5 -11 10 -11 6 0 10 7 10 15 0 9 9 15 25 15 19 0 25
-5 25 -21 0 -24 22 -49 44 -49 25 0 22 -72 -4 -90 -23 -16 -26 -36 -8 -42 27
-9 -20 -38 -61 -38 -39 0 -41 -2 -41 -30 0 -16 5 -30 10 -30 6 0 10 -4 10 -10
0 -5 -13 -10 -30 -10 -16 0 -30 5 -30 10 0 6 -9 10 -20 10 -11 0 -20 5 -20 10
0 6 -10 10 -23 10 -12 0 -29 9 -37 20 -8 12 -26 20 -42 20 -15 0 -28 5 -28 10
0 6 -16 10 -35 10 -19 0 -35 5 -35 10 0 6 -13 10 -30 10 -20 0 -30 5 -30 15 0
10 -10 15 -30 15 -16 0 -30 5 -30 10 0 6 -11 10 -25 10 -14 0 -25 5 -25 10 0
6 -9 10 -20 10 -11 0 -20 5 -20 10 0 6 -13 10 -30 10 -16 0 -30 5 -30 10 0 6
-9 10 -20 10 -11 0 -20 5 -20 10 0 6 -16 10 -35 10 -19 0 -35 5 -35 10 0 6
-13 10 -30 10 -16 0 -30 5 -30 10 0 6 -11 10 -25 10 -19 0 -25 5 -25 23 0 12
-9 29 -20 37 -16 11 -20 26 -20 66 0 32 5 55 13 58 10 5 10 7 0 12 -8 4 -13
27 -13 65 0 33 -4 59 -10 59 -5 0 -10 11 -10 25 0 14 5 25 10 25 6 0 10 27 10
60 l0 60 35 0 c31 0 35 3 35 25 0 20 5 25 26 25 14 0 32 -6 40 -14z m394 -316
c0 -5 -4 -10 -10 -10 -5 0 -10 5 -10 10 0 6 5 10 10 10 6 0 10 -4 10 -10z
m150 -110 c0 -5 -9 -10 -20 -10 -11 0 -20 5 -20 10 0 6 9 10 20 10 11 0 20 -4
20 -10z m300 -340 c0 -16 5 -30 10 -30 6 0 10 -9 10 -20 0 -11 -4 -20 -10 -20
-5 0 -10 -11 -10 -25 0 -14 5 -25 10 -25 6 0 10 -9 10 -20 0 -13 -7 -20 -20
-20 -11 0 -20 5 -20 10 0 6 -9 10 -20 10 -16 0 -20 7 -20 35 0 19 5 35 10 35
6 0 10 14 10 30 0 17 5 30 10 30 6 0 10 9 10 20 0 11 5 20 10 20 6 0 10 -13
10 -30z"/>
<path d="M600 610 c0 -5 5 -10 10 -10 6 0 10 5 10 10 0 6 -4 10 -10 10 -5 0
-10 -4 -10 -10z"/>
<path d="M1210 575 c0 -16 6 -25 15 -25 9 0 15 9 15 25 0 16 -6 25 -15 25 -9
0 -15 -9 -15 -25z"/>
<path d="M1300 330 c0 -5 5 -10 10 -10 6 0 10 5 10 10 0 6 -4 10 -10 10 -5 0
-10 -4 -10 -10z"/>
<path d="M1593 1625 c-7 -8 -13 -26 -13 -40 0 -21 5 -25 30 -25 17 0 30 5 30
10 0 6 14 10 30 10 17 0 30 5 30 10 0 6 7 10 15 10 8 0 15 9 15 20 0 18 -7 20
-62 20 -42 -1 -67 -6 -75 -15z"/>
<path d="M1490 1570 c0 -5 5 -10 10 -10 6 0 10 -11 10 -25 0 -20 5 -25 25 -25
16 0 25 6 25 15 0 8 -6 15 -13 15 -7 0 -19 9 -27 20 -15 21 -30 26 -30 10z"/>
<path d="M300 1480 c0 -5 9 -10 20 -10 11 0 20 5 20 10 0 6 -9 10 -20 10 -11
0 -20 -4 -20 -10z"/>
<path d="M360 1460 c0 -5 5 -10 10 -10 6 0 10 5 10 10 0 6 -4 10 -10 10 -5 0
-10 -4 -10 -10z"/>
<path d="M640 1420 c0 -5 5 -10 10 -10 6 0 10 5 10 10 0 6 -4 10 -10 10 -5 0
-10 -4 -10 -10z"/>
<path d="M720 1400 c0 -5 7 -10 15 -10 8 0 15 -7 15 -15 0 -8 5 -15 10 -15 6
0 10 11 10 25 0 20 -5 25 -25 25 -14 0 -25 -4 -25 -10z"/>
<path d="M450 1350 c0 -5 5 -10 10 -10 6 0 10 5 10 10 0 6 -4 10 -10 10 -5 0
-10 -4 -10 -10z"/>
<path d="M1620 1350 c0 -5 -13 -10 -30 -10 -16 0 -30 -4 -30 -10 0 -5 -15 -10
-34 -10 -19 0 -37 -6 -40 -12 -5 -10 -7 -10 -12 0 -7 14 -64 17 -64 2 0 -5 -7
-10 -15 -10 -10 0 -15 -10 -15 -30 0 -25 4 -30 25 -30 14 0 25 5 25 10 0 6 18
10 40 10 22 0 40 5 40 10 0 6 32 10 75 10 65 0 75 2 75 18 0 10 9 24 20 32 30
22 24 30 -20 30 -22 0 -40 -4 -40 -10z"/>
<path d="M750 1330 c0 -5 5 -10 10 -10 6 0 10 5 10 10 0 6 -4 10 -10 10 -5 0
-10 -4 -10 -10z"/>
<path d="M2010 1280 c-8 -11 -20 -20 -28 -20 -20 0 -50 -32 -34 -38 6 -2 12
-10 12 -18 0 -10 13 -14 45 -14 33 0 45 4 45 15 0 8 5 15 10 15 6 0 10 18 10
40 0 35 -3 40 -23 40 -12 0 -29 -9 -37 -20z"/>
<path d="M510 1270 c0 -5 5 -10 10 -10 6 0 10 5 10 10 0 6 -4 10 -10 10 -5 0
-10 -4 -10 -10z"/>
<path d="M2300 1250 c0 -5 5 -10 10 -10 6 0 10 5 10 10 0 6 -4 10 -10 10 -5 0
-10 -4 -10 -10z"/>
<path d="M1900 1230 c0 -5 5 -10 10 -10 6 0 10 5 10 10 0 6 -4 10 -10 10 -5 0
-10 -4 -10 -10z"/>
<path d="M810 1140 c0 -5 5 -10 10 -10 6 0 10 5 10 10 0 6 -4 10 -10 10 -5 0
-10 -4 -10 -10z"/>
<path d="M960 1030 c0 -5 5 -10 10 -10 6 0 10 5 10 10 0 6 -4 10 -10 10 -5 0
-10 -4 -10 -10z"/>
<path d="M1730 990 c0 -5 5 -10 10 -10 6 0 10 5 10 10 0 6 -4 10 -10 10 -5 0
-10 -4 -10 -10z"/>
</g>
</svg>
